<svg width="34" height="22" viewBox="0 0 34 22" fill="none" xmlns="http://www.w3.org/2000/svg">
<path d="M0.5 20.1667C0.5 21.1792 1.32081 22 2.33333 22H31.6667C32.6792 22 33.5 21.1792 33.5 20.1667C33.5 19.1541 32.6792 18.3333 31.6667 18.3333H2.33333C1.32081 18.3333 0.5 19.1541 0.5 20.1667ZM0.5 11C0.5 12.0125 1.32081 12.8333 2.33333 12.8333H31.6667C32.6792 12.8333 33.5 12.0125 33.5 11C33.5 9.98748 32.6792 9.16667 31.6667 9.16667H2.33333C1.32081 9.16667 0.5 9.98748 0.5 11ZM2.33333 0C1.32081 0 0.5 0.820812 0.5 1.83333C0.5 2.84585 1.32081 3.66667 2.33333 3.66667H31.6667C32.6792 3.66667 33.5 2.84585 33.5 1.83333C33.5 0.820812 32.6792 0 31.6667 0H2.33333Z" fill="white"/>
</svg>
