<svg width="46" height="45" viewBox="0 0 46 45" fill="none" xmlns="http://www.w3.org/2000/svg">
<path d="M20.9785 0.0879144C16.7422 0.465814 12.6289 2.10931 9.11328 4.81641C7.39938 6.13471 5.17578 8.61332 3.89258 10.6347C3.33888 11.5049 2.25778 13.7197 1.87108 14.7744C0.350579 18.9228 0.104479 23.4931 1.17678 27.8877L1.40528 28.8457L1.17678 29.5136C0.535179 31.3857 0.376979 33.0117 0.631779 34.8926C1.33498 40.122 5.37788 44.165 10.6074 44.8681C11.7764 45.0263 12.5146 45.0263 13.6836 44.8681C17.0059 44.4199 19.959 42.5654 21.8135 39.7705C22.6133 38.5576 23.0352 37.626 23.3955 36.2109C23.958 34.0312 23.835 31.5263 23.0439 29.3379C22.1123 26.7627 20.0469 24.4072 17.5508 23.0801C13.2441 20.7949 7.78608 21.5068 4.31448 24.8027C3.95408 25.1455 3.64648 25.4092 3.62888 25.3916C3.53218 25.2949 3.40038 23.6162 3.40038 22.5C3.40038 20.3291 3.71678 18.3779 4.42868 16.2597C5.87888 11.8828 8.93748 8.09471 12.998 5.64251C13.833 5.14161 15.793 4.19241 15.8633 4.26271C15.8809 4.28021 15.7051 4.57911 15.4678 4.93941C14.6064 6.21381 13.7978 7.87501 13.1035 9.75581C12.7959 10.582 12.6992 10.7578 12.5674 10.7402C12.4795 10.7226 11.8203 10.5556 11.0908 10.3535C9.42088 9.88771 9.14838 9.86131 8.68258 10.1074C7.80368 10.5556 7.64548 11.7422 8.37498 12.3925C8.67378 12.6562 9.60548 12.9814 11.1699 13.3681L11.9434 13.5615L11.8994 13.8779C11.873 14.0537 11.75 14.748 11.6357 15.4248C11.5127 16.1015 11.3457 17.2968 11.2666 18.0791L11.1172 19.5029L11.3193 19.9248C11.6006 20.4873 11.9961 20.7422 12.585 20.7422C12.9102 20.7422 13.1211 20.6894 13.332 20.54C13.8506 20.1972 13.9561 19.9072 14.1318 18.2988C14.3164 16.6904 14.7119 14.3261 14.8262 14.2031C14.8701 14.1592 15.3271 14.1855 15.8984 14.2646C17.2871 14.4668 18.3945 14.5722 19.5723 14.6338C20.126 14.6601 20.7939 14.7041 21.0488 14.7304L21.5059 14.7744V17.9209V21.0674L21.1455 21.1289C20.1611 21.2871 19.7217 22.5879 20.3809 23.4228C20.7764 23.9238 20.3105 23.9062 30.9189 23.9062H40.6836L41.0176 23.7217C41.9404 23.2031 41.9404 21.7968 41.0176 21.2783C40.7012 21.1025 40.5781 21.0937 37.8271 21.0937H34.9707L34.918 20.3203C34.7598 18 34.5049 15.8994 34.2061 14.5195C34.0039 13.5263 33.9687 13.5791 34.8477 13.3681C36.2539 13.0166 37.3174 12.6562 37.5723 12.4365C38.3369 11.7949 38.1963 10.5556 37.3174 10.1074C36.8955 9.88771 36.5264 9.88771 35.8057 10.1074C34.417 10.5381 33.2744 10.8017 33.2393 10.6963C32.5361 8.62201 31.5254 6.44241 30.6465 5.10641C30.3477 4.65821 30.1191 4.27151 30.1367 4.26271C30.1982 4.19241 32.1055 5.11521 32.958 5.62501C36.2715 7.59371 38.9346 10.4765 40.6133 13.9131C45.2187 23.3349 41.5625 34.7168 32.3076 39.7529C31.376 40.2627 30.0928 40.8164 30.1719 40.667C30.207 40.6142 30.418 40.2802 30.6465 39.9463C31.4902 38.6806 32.3076 36.9843 32.9053 35.2881C33.0723 34.8047 33.2393 34.374 33.2832 34.3301C33.3623 34.2509 34.2676 34.4443 35.5156 34.8134C36.5439 35.1123 36.8604 35.1299 37.335 34.8926C37.9678 34.5674 38.249 33.8115 37.9766 33.1523C37.7129 32.4756 37.3262 32.2822 34.9971 31.6758C34.3115 31.5 34.0742 31.4033 34.0742 31.2978C34.0742 31.2187 34.1533 30.7441 34.25 30.2343C34.4785 29.0654 34.7773 26.7187 34.7773 26.1474C34.7773 24.9258 33.4238 24.2929 32.4482 25.0576C32.0791 25.3564 31.9912 25.6465 31.7978 27.2021C31.5693 29.0215 31.2353 30.7881 31.1123 30.8232C31.0596 30.8408 30.4092 30.7793 29.6621 30.6826C28.9238 30.5859 27.7373 30.4629 27.0342 30.4013C25.5664 30.2871 25.2852 30.3398 24.8457 30.7881C24.3447 31.3066 24.3096 32.0625 24.7666 32.6426C25.1006 33.0644 25.3906 33.1435 27.21 33.3105C28.9238 33.4775 30.3125 33.6445 30.374 33.706C30.4355 33.7676 29.6445 35.7451 29.1963 36.6504C27.7637 39.5332 26.208 41.2119 24.3623 41.8535C23.7207 42.0732 23.5449 42.0996 22.4463 42.0996C21.04 42.0996 20.7412 42.1875 20.3896 42.7236C20.2314 42.9697 20.1699 43.1806 20.1699 43.4883C20.1699 44.0332 20.3633 44.4111 20.8027 44.7011C21.1279 44.9209 21.2422 44.9385 22.3672 44.9824C26.041 45.1142 29.9521 44.2177 33.3271 42.4599C35.5068 41.3349 37.0625 40.1748 38.9082 38.3291C40.8066 36.4306 42.0195 34.7343 43.1709 32.3877C43.9443 30.8144 44.3311 29.7861 44.7529 28.2041C45.3066 26.0947 45.4385 24.9433 45.4385 22.5C45.4385 20.0566 45.3066 18.9052 44.7529 16.7959C44.3311 15.2138 43.9443 14.1855 43.1709 12.6123C42.0195 10.2656 40.8066 8.56931 38.9082 6.67091C37.0625 4.82521 35.5068 3.66502 33.3271 2.54002C29.5391 0.571315 25.2061 -0.290086 20.9785 0.0879144ZM24.5469 3.19041C26.3486 3.91991 27.9131 5.68651 29.2754 8.53421C29.7939 9.60641 30.4268 11.2324 30.3564 11.3027C30.251 11.417 25.6367 11.8652 24.6172 11.8652H24.4062V8.35841C24.4062 6.09081 24.3711 4.75491 24.3096 4.59671C24.1689 4.21871 23.7031 3.78811 23.334 3.68261C22.8682 3.55951 22.4199 3.66501 22.0508 3.99021C21.5059 4.46481 21.5059 4.46481 21.5059 8.34961C21.5059 11.7597 21.4971 11.8652 21.3389 11.8652C20.3809 11.8652 15.749 11.4082 15.6436 11.3115C15.626 11.2851 15.7666 10.8633 15.96 10.3623C17.4805 6.35452 19.5107 3.84081 21.8574 3.05861C22.5518 2.83001 23.8086 2.89161 24.5469 3.19041ZM31.3232 14.7217C31.6221 16.1455 32.0527 19.7754 32.0527 20.8476V21.0937H28.2295H24.4062V17.9384V14.7832L24.96 14.7304C25.2588 14.7041 25.9443 14.6601 26.4717 14.6338C27.5176 14.5722 29.5391 14.3701 30.251 14.247C30.4971 14.2031 30.8047 14.1767 30.9541 14.1767C31.2002 14.1943 31.2178 14.2295 31.3232 14.7217ZM14.2988 24.8994C20.7588 26.5869 23.0615 34.5586 18.4824 39.3662C17.2783 40.623 15.9512 41.3965 14.123 41.8974C13.2266 42.1435 10.9853 42.1172 9.99218 41.8447C7.39058 41.1504 5.33398 39.4189 4.19138 36.9843C3.60248 35.7187 3.45308 34.9717 3.45308 33.3545C3.45308 31.8955 3.51458 31.4736 3.93648 30.3222C4.97358 27.4746 7.54878 25.3213 10.6074 24.7412C11.6006 24.5566 13.2529 24.6269 14.2988 24.8994Z" fill="black"/>
<path d="M11.7852 25.2598C11.3193 25.4707 11.0381 25.9277 10.9766 26.5957L10.9151 27.1758L10.2559 27.3428C8.6387 27.7559 7.5488 28.6172 7.127 29.8301C6.9512 30.3047 6.96 31.2803 7.127 31.7988C7.3203 32.3613 7.8389 33.0205 8.4014 33.416C9.1309 33.9258 10.0625 34.2686 11.8731 34.6729C13.7451 35.0947 14.501 35.3496 14.7998 35.6484C15.0635 35.9121 14.9932 36.0527 14.4922 36.3252C13.3936 36.9229 11.2842 36.8525 10.0361 36.1758C9.5703 35.9297 9.4736 35.8242 9.2188 35.3232C8.8672 34.6289 8.6123 34.4355 7.9971 34.3828C6.8897 34.2861 6.2305 35.1211 6.5205 36.2373C6.8984 37.6963 8.3311 38.8652 10.3174 39.3398L10.9414 39.4893L10.9766 40.0869C11.0117 40.7549 11.1611 41.0361 11.6621 41.3701C11.8731 41.5195 12.0752 41.5723 12.4092 41.5723C13.2354 41.5723 13.7539 41.0273 13.8506 40.0518L13.9033 39.5156L14.5625 39.3574C15.9072 39.0322 17.0322 38.25 17.5068 37.3008C17.7442 36.8262 17.7705 36.7031 17.7705 35.9033C17.7705 35.1211 17.7442 34.9717 17.5244 34.5234C17.0674 33.6006 15.9424 32.7744 14.5274 32.3438C14.2373 32.2471 13.4199 32.0537 12.7168 31.9043C11.1699 31.5791 10.4317 31.333 10.0537 31.0078L9.7725 30.7617L10.0361 30.542C10.4492 30.1992 11.1436 30.0234 12.1455 30.0146C13.4727 30.0146 14.3252 30.4014 14.6592 31.1572C15.0899 32.1328 16.127 32.4492 16.918 31.8516C17.542 31.3682 17.6211 30.665 17.1553 29.7246C16.6367 28.6963 15.4854 27.7822 14.2373 27.4131L13.8594 27.3076V26.8154C13.8594 26.2002 13.6221 25.6729 13.2442 25.4004C12.8838 25.1455 12.1807 25.0752 11.7852 25.2598Z" fill="black"/>
</svg>
