<svg width="46" height="45" viewBox="0 0 46 45" fill="none" xmlns="http://www.w3.org/2000/svg">
<path d="M6.82812 0.193399C6.53812 0.342799 6.37992 0.501 6.23932 0.791L6.03712 1.1777V12.3135V23.4492L5.35162 23.9326C4.56942 24.4775 3.54102 25.4707 2.93462 26.2617C-1.29298 31.7461 0.19242 39.6738 6.12502 43.3037C7.83012 44.3496 10.1416 45 12.1455 45C14.8438 45 17.7705 43.8926 19.7656 42.126C22.0772 40.0781 23.4219 37.4062 23.7031 34.3564C24.0108 31.0166 22.8506 27.7559 20.4776 25.3037C17.5244 22.2627 13.2969 21.0586 9.18362 22.1045L8.93752 22.166V12.5332V2.9004H25.7686H42.5996V22.5V42.0996L31.8945 42.1172L21.1807 42.1436L20.8643 42.3896C19.9678 43.0752 20.0557 44.3496 21.0313 44.8242C21.3828 45 21.5938 45 32.8526 45H44.3223L44.709 44.7979C44.999 44.6572 45.1572 44.499 45.3067 44.209L45.5 43.8223V22.5V1.1777L45.3067 0.791C45.1572 0.501 44.999 0.342799 44.709 0.193399L44.3223 0H25.7686H7.21492L6.82812 0.193399ZM14.2988 24.8994C19.5723 26.2793 22.332 32.0273 20.0996 36.9756C18.9922 39.4102 16.9004 41.1328 14.1231 41.8975C13.2266 42.1436 10.9854 42.1172 9.99222 41.8447C8.41902 41.4229 7.02152 40.6055 5.89652 39.4453C4.79792 38.3203 4.05962 37.0195 3.65532 35.5078C3.38282 34.5146 3.35652 32.2734 3.60262 31.377C4.57812 27.8262 7.13582 25.4004 10.6074 24.7412C11.6006 24.5566 13.2529 24.627 14.2988 24.8994Z" fill="black"/>
<path d="M11.7852 25.2598C11.3194 25.4707 11.0381 25.9277 10.9766 26.5957L10.9151 27.1758L10.2559 27.3428C8.63871 27.7559 7.54892 28.6172 7.12702 29.8301C6.95122 30.3047 6.96002 31.2803 7.12702 31.7988C7.32042 32.3613 7.83891 33.0205 8.40141 33.416C9.13091 33.9258 10.0625 34.2686 11.8731 34.6729C13.7452 35.0947 14.501 35.3496 14.7999 35.6484C15.0635 35.9121 14.9932 36.0527 14.4922 36.3252C13.3936 36.9229 11.293 36.8525 10.0362 36.1758C9.58791 35.9385 9.47371 35.8242 9.28031 35.4287C8.92001 34.6992 8.60361 34.4355 8.02351 34.3828C7.44341 34.3389 7.08312 34.4619 6.78422 34.8223C6.45022 35.2178 6.37111 35.6484 6.52061 36.2373C6.89851 37.6963 8.33111 38.8652 10.3174 39.3398L10.9415 39.4893L10.9766 40.0869C11.0118 40.7549 11.1612 41.0361 11.6622 41.3701C11.8731 41.5195 12.0752 41.5723 12.4092 41.5723C13.2354 41.5723 13.754 41.0273 13.8506 40.0518L13.9034 39.5156L14.5625 39.3574C15.9073 39.0322 17.0323 38.25 17.5069 37.3008C17.7442 36.8262 17.7706 36.7031 17.7706 35.9033C17.7706 35.1211 17.7442 34.9717 17.5245 34.5234C17.0674 33.6006 15.9424 32.7744 14.5274 32.3438C14.2374 32.2471 13.42 32.0537 12.7168 31.9043C11.17 31.5791 10.4317 31.333 10.0538 31.0078L9.77251 30.7617L10.0362 30.542C10.4493 30.1992 11.1436 30.0234 12.1456 30.0146C13.4727 30.0146 14.3252 30.4014 14.6592 31.1572C14.7559 31.3682 14.9668 31.6582 15.1338 31.7988C16.0567 32.6162 17.4629 31.9482 17.4629 30.6914C17.4629 30.1201 16.9356 29.1885 16.2676 28.582C15.7051 28.0635 14.712 27.501 14.1495 27.3779C13.8682 27.3252 13.8594 27.3164 13.8594 26.8242C13.8594 26.2002 13.6221 25.6729 13.2442 25.4004C12.8838 25.1455 12.1807 25.0752 11.7852 25.2598Z" fill="black"/>
<path d="M33.1162 4.39451C32.7295 4.48241 32.4043 4.73731 32.1846 5.10651C32.0176 5.38771 32.0088 5.58991 31.9824 7.97171L31.9561 10.5469L21.7871 10.5645C11.794 10.5908 11.6094 10.5908 11.3193 10.7666C10.8535 11.0391 10.669 11.3555 10.625 11.9268C10.5986 12.3486 10.625 12.4893 10.8008 12.7354C10.9063 12.9024 11.1172 13.1221 11.249 13.2188C11.4951 13.4033 11.5039 13.4033 21.7344 13.4297L31.9649 13.4473V17.3145V21.1817H26.4981C21.3477 21.1817 21.0049 21.1992 20.6621 21.3486C20.1963 21.5596 19.9063 21.9727 19.8535 22.4912C19.8008 23.0274 19.9942 23.4668 20.416 23.7832L20.7412 24.0381L26.3574 24.0645L31.9649 24.082V27.9492V31.8164H28.959C26.1026 31.8164 25.9356 31.8252 25.584 32.001C24.7315 32.4141 24.5117 33.4512 25.1358 34.1631C25.6192 34.708 25.6631 34.7168 28.9766 34.7168H31.9649V37.1953C31.9649 38.7334 32 39.8145 32.0615 40.0342C32.2549 40.7373 33.0371 41.2119 33.7315 41.0537C34.1797 40.9483 34.4785 40.711 34.6895 40.2891C34.8565 39.9551 34.8652 39.7617 34.8652 37.3272V34.7168H37.3965C39.875 34.7168 39.9453 34.708 40.3145 34.5147C40.7539 34.2861 41.1055 33.7236 41.1055 33.2666C41.1055 32.8096 40.7539 32.2471 40.3145 32.0186C39.9453 31.8252 39.875 31.8164 37.3965 31.8164H34.8652V27.9492V24.082H37.3965C40.2529 24.082 40.4639 24.0381 40.833 23.4317C41.2725 22.7285 41.0967 21.8936 40.4287 21.4453L40.1123 21.2256L37.4844 21.1992L34.8652 21.1729V17.3057V13.4473H37.4229C39.6026 13.4473 40.0244 13.4297 40.2793 13.3067C41.0879 12.9199 41.3428 11.8301 40.7803 11.1621C40.3145 10.5996 40.2617 10.5908 37.4404 10.5645L34.8652 10.5381V8.03321C34.8652 5.35261 34.8389 5.15041 34.417 4.74611C34.0742 4.42091 33.582 4.28911 33.1162 4.39451Z" fill="black"/>
</svg>
