<svg width="46" height="41" viewBox="0 0 46 41" fill="none" xmlns="http://www.w3.org/2000/svg">
<path d="M1.291 1.0059C1.001 1.1553 0.842801 1.3135 0.702101 1.6035L0.5 1.9902V20.5V39.0098L0.693399 39.3965C0.842799 39.6865 1.001 39.8447 1.291 39.9941L1.6777 40.1875L22.8857 40.1699L44.085 40.1436L44.3311 39.959C44.4629 39.8623 44.6738 39.6426 44.7793 39.4756C44.9551 39.2295 44.9814 39.0889 44.9551 38.667C44.9111 38.0605 44.7178 37.7617 44.1816 37.4805L43.7949 37.2871H23.5977H3.4004V31.8467V26.3975L6.5469 23.3564C8.2695 21.6865 9.7549 20.1836 9.8428 20.0342C10.0449 19.6562 10.0361 19.0586 9.8076 18.6543C9.4561 18.0303 8.5859 17.7666 7.9531 18.0918C7.8037 18.1709 6.7227 19.1553 5.5625 20.2891L3.4443 22.3369L3.4004 12.0801L3.3564 1.8232L3.1543 1.498C2.9346 1.1377 2.3545 0.8125 1.9414 0.8125C1.8008 0.8125 1.502 0.900399 1.291 1.0059Z" fill="black"/>
<path d="M39.7783 4.01173C38.8115 4.28423 37.7656 5.06643 37.1504 5.98053C36.2627 7.30763 36.2627 9.38183 37.1592 10.7793C37.9678 12.0625 39.4268 12.8535 40.9824 12.8535C42.916 12.8535 44.6211 11.6318 45.2539 9.79493C45.5352 8.98633 45.5264 7.78223 45.2451 6.93853C44.7617 5.50593 43.584 4.39843 42.1162 4.01173C41.5713 3.86233 40.3232 3.87113 39.7783 4.01173ZM41.3955 6.79793C41.5801 6.84183 41.8701 7.00883 42.0459 7.16703C43.1797 8.16023 42.4854 9.97953 40.9736 9.97953C40.4727 9.97953 40.1211 9.82133 39.7695 9.45213C38.9785 8.61723 39.3389 7.22853 40.4551 6.83303C40.877 6.68363 40.9736 6.67483 41.3955 6.79793Z" fill="black"/>
<path d="M12.7432 10.5156C10.7393 11.0078 9.28912 12.8535 9.28912 14.9189C9.28912 16.1055 9.67582 17.0635 10.5107 17.9687C11.4072 18.9443 12.4619 19.4014 13.7715 19.3926C14.9404 19.3838 15.5645 19.1641 16.6895 18.3643C16.9092 18.2148 16.918 18.2148 19.0713 19.3135C20.2578 19.9199 21.3213 20.4121 21.4443 20.4121C21.9805 20.4121 22.543 20.0693 22.7891 19.6035C22.9473 19.2959 22.9473 18.6279 22.7803 18.3027C22.5869 17.9248 22.2617 17.7227 20.1787 16.6416L18.2715 15.666V14.9365C18.2803 14.5234 18.2188 14.0049 18.1396 13.7324C17.4629 11.4033 15.0459 9.96191 12.7432 10.5156ZM14.6855 13.5654C15.0547 13.8115 15.4414 14.5146 15.4414 14.9189C15.4414 15.0684 15.3447 15.3848 15.2217 15.6309C14.457 17.1514 12.1982 16.6504 12.1719 14.9541C12.1631 14.2861 12.4795 13.7676 13.1123 13.4248C13.499 13.2227 14.2812 13.2842 14.6855 13.5654Z" fill="black"/>
<path d="M35.6738 11.7285C35.4629 11.8515 34.2939 13.0029 32.791 14.5673C31.4111 16.0175 30.1104 17.3798 29.8994 17.582L29.5303 17.9687L28.8799 17.7314C25.9004 16.6503 22.7979 18.8037 22.7979 21.9501C22.7979 25.9843 27.7637 27.9794 30.5234 25.0527C31.6309 23.8749 32.0527 22.3017 31.6484 20.8076C31.5693 20.5175 31.499 20.2363 31.4902 20.1835C31.4902 20.1308 32.8525 18.663 34.5312 16.914C37.0977 14.2421 37.5986 13.6884 37.6777 13.3808C37.8623 12.704 37.5547 12.0185 36.9219 11.7109C36.4561 11.4824 36.1221 11.4912 35.6738 11.7285ZM28.2471 20.6406C28.6777 20.9833 28.8887 21.4052 28.8887 21.9326C28.8887 22.4687 28.7217 22.8642 28.3789 23.1542C27.5264 23.8662 26.3486 23.6376 25.8564 22.6621C25.5752 22.0996 25.584 21.7744 25.8828 21.1943C26.208 20.5703 26.7002 20.2978 27.4121 20.3417C27.8164 20.3681 27.9922 20.4384 28.2471 20.6406Z" fill="black"/>
<path d="M40.2881 14.8222C40.1035 14.8925 39.8662 15.0156 39.7695 15.1122C39.3389 15.499 39.3477 15.1913 39.3477 25.3603V34.8876L39.5498 35.1777C39.8399 35.6171 40.1651 35.8105 40.6485 35.8632C41.2022 35.916 41.7031 35.6523 41.9756 35.1777L42.1602 34.8437V25.2724V15.6923L41.958 15.4023C41.5889 14.8486 40.8858 14.6025 40.2881 14.8222Z" fill="black"/>
<path d="M13.1914 20.8428C12.9893 20.9307 12.7344 21.1417 12.6201 21.2999L12.4092 21.5987V28.296C12.4092 34.9229 12.4092 34.9932 12.5938 35.2305C12.8926 35.6348 13.209 35.8194 13.6748 35.8633C14.0352 35.8985 14.1846 35.8633 14.501 35.6788C15.2568 35.2305 15.2217 35.6085 15.248 28.6739C15.2656 25.3165 15.248 22.3633 15.2217 22.1085C15.0898 21.0186 14.1143 20.4034 13.1914 20.8428Z" fill="black"/>
<path d="M26.6475 28.0059C26.3135 28.1553 26.1201 28.3663 25.9443 28.7881C25.8389 29.0518 25.8125 29.5791 25.8125 31.8995C25.8125 34.4307 25.8301 34.7295 25.9795 35.0547C26.1904 35.5206 26.6035 35.8106 27.1221 35.8633C27.6582 35.9161 28.0977 35.7227 28.4141 35.3008L28.6689 34.9756V31.8731C28.6689 28.8672 28.6602 28.7706 28.4844 28.5245C28.0449 27.9268 27.2979 27.7159 26.6475 28.0059Z" fill="black"/>
</svg>
