<svg width="30" height="30" viewBox="0 0 30 30" fill="none" xmlns="http://www.w3.org/2000/svg">
<path d="M13.5997 0.0585728C8.51373 0.55076 3.96685 3.63279 1.66412 8.15623C0.849665 9.75584 0.369196 11.2969 0.105524 13.1543C-0.0116631 13.9746 0.00591507 16.1074 0.140681 17.0215C0.369196 18.6504 0.849665 20.1914 1.58795 21.6738C3.04693 24.6152 5.37896 26.9472 8.32623 28.4121C13.1016 30.791 18.7501 30.4629 23.2032 27.5508C24.9434 26.414 26.5958 24.7265 27.7208 22.9336C28.1544 22.2539 28.7989 20.9297 29.0919 20.1328C29.3907 19.3242 29.7364 17.9297 29.8594 17.0215C29.9942 16.1015 30.0118 13.9687 29.8946 13.1543C29.5489 10.7226 28.7754 8.64841 27.4922 6.71482C26.9532 5.89451 26.4083 5.22654 25.6465 4.45896C23.3087 2.09764 20.4024 0.632792 17.0801 0.140604C16.3653 0.0351353 14.3497 -0.0117397 13.5997 0.0585728ZM19.5997 7.38279C20.1329 7.55271 20.4551 7.71677 20.9004 8.05076C21.1465 8.23826 21.3106 8.32029 21.4454 8.32029C21.709 8.32029 22.4356 8.06834 23.0684 7.75779C23.6485 7.47068 23.8067 7.4531 23.836 7.66404C23.8653 7.86326 23.5079 8.5781 23.1504 9.04685C22.8047 9.49216 22.7872 9.48045 23.5254 9.21677C24.0294 9.02927 24.334 9.0117 24.3633 9.15818C24.3985 9.32224 23.8712 10.0019 23.168 10.6933L22.5118 11.3437L22.4766 11.8652C22.3301 13.9394 21.9786 15.3105 21.1993 16.8281C19.7286 19.6933 17.2911 21.6679 14.2676 22.4355C13.2247 22.6992 12.7325 22.7578 11.4551 22.7578C10.1602 22.7636 9.70318 22.7109 8.72466 22.4648C7.92193 22.2656 7.21881 22.0078 6.45709 21.6386C5.77154 21.3047 5.58404 21.1347 5.65435 20.9179C5.71295 20.7363 5.91802 20.6836 6.58599 20.6836C7.61724 20.6836 8.68365 20.4375 9.63873 19.9746C10.295 19.664 10.5997 19.4648 10.4883 19.4355C10.4415 19.4179 10.2188 19.3476 9.99029 19.2832C9.00591 18.9785 8.12115 18.2168 7.6524 17.2793C7.25396 16.4883 7.28912 16.3886 7.94537 16.4414L8.34966 16.4765L7.98052 16.248C6.89068 15.5801 6.1524 14.3789 6.05279 13.1308C6.00591 12.5039 6.06451 12.4687 6.64459 12.709C6.88482 12.8086 7.11334 12.8906 7.14849 12.8906C7.18365 12.8906 7.12506 12.7793 7.01373 12.6386C6.37506 11.8535 6.08795 11.0508 6.08795 10.0429C6.08209 9.41013 6.21099 8.83006 6.46295 8.32029C6.72076 7.79881 6.79107 7.79881 7.2774 8.34373C8.69537 9.94334 10.5645 11.0683 12.6563 11.6015C13.3126 11.7656 14.2559 11.8945 14.3262 11.8301C14.3614 11.7949 14.3907 11.5136 14.3907 11.2031C14.4024 10.5058 14.5196 10.0195 14.8301 9.3867C15.3458 8.33787 16.3477 7.56443 17.5489 7.28904C18.0587 7.17185 19.0782 7.21873 19.5997 7.38279Z" fill="#0D6986"/>
</svg>
