<svg width="30" height="30" viewBox="0 0 30 30" fill="none" xmlns="http://www.w3.org/2000/svg">
<path d="M13.916 0.386698C13.8223 0.398417 13.4883 0.439432 13.1836 0.474588C10.6348 0.761698 8.0918 1.8281 5.91797 3.50974C5.27344 4.00779 4.00195 5.27928 3.50391 5.92381C1.88086 8.0156 0.896484 10.3301 0.486328 12.9902C0.351562 13.8691 0.351562 16.1308 0.486328 17.0097C1.14258 21.2695 3.375 24.8262 6.85547 27.1582C8.78906 28.4531 10.7754 29.1972 13.2129 29.5429C14.0039 29.6543 16.1602 29.6367 17.0215 29.5137C19.207 29.1914 21.3047 28.3887 23.0859 27.1992C26.7012 24.7793 28.9219 21.1933 29.543 16.7871C29.6426 16.0898 29.6367 13.8984 29.5371 13.1836C29.0215 9.46287 27.2285 6.15818 24.4629 3.82615C22.3711 2.05662 19.7637 0.884745 17.0508 0.498026C16.418 0.404276 14.3145 0.328104 13.916 0.386698ZM19.3125 6.09959C20.1328 6.18748 20.6953 6.34568 21.3574 6.67381C22.541 7.25974 23.2676 8.10349 23.707 9.39256C24.0117 10.289 24.0234 10.4648 24.0234 15C24.0234 18.4336 24.0059 19.2949 23.9355 19.6933C23.5078 22.1426 21.8906 23.6133 19.3066 23.9062C18.6035 23.9824 11.3848 23.9824 10.6934 23.9062C8.80078 23.6894 7.37695 22.8164 6.64453 21.4277C6.375 20.9121 6.16992 20.3027 6.06445 19.6933C5.93555 18.9726 5.93555 11.0273 6.06445 10.3066C6.22852 9.35154 6.61523 8.46678 7.14258 7.82224C7.88672 6.91404 9.19922 6.26365 10.6055 6.09959C11.2617 6.02342 18.6387 6.02342 19.3125 6.09959Z" fill="#0D6986"/>
<path d="M12.7441 7.74023C10.3535 7.78125 10.2012 7.79883 9.39844 8.17969C8.64844 8.53125 8.02148 9.35742 7.75781 10.3418C7.65234 10.7227 7.64648 11.0273 7.64648 15C7.64648 18.9727 7.65234 19.2773 7.75781 19.6582C8.02148 20.6426 8.64844 21.4688 9.39844 21.8203C10.2012 22.2012 10.3477 22.2188 12.791 22.2598C14.0039 22.2773 15.9961 22.2773 17.2148 22.2598C19.6523 22.2188 19.7988 22.2012 20.6016 21.8203C21.3516 21.4688 21.9785 20.6426 22.2422 19.6582C22.3477 19.2773 22.3535 18.9727 22.3535 15C22.3535 11.0273 22.3477 10.7227 22.2422 10.3418C21.9785 9.35742 21.3516 8.53125 20.6016 8.17969C19.8633 7.82812 19.5762 7.78125 18.0176 7.75781C17.2441 7.74609 16.2305 7.72852 15.7617 7.7168C15.293 7.71094 13.9395 7.72266 12.7441 7.74023ZM20.1797 9.39844C20.2852 9.44531 20.4492 9.58008 20.543 9.70312C20.6836 9.88477 20.7129 9.97852 20.7129 10.2598C20.7129 10.5117 20.6836 10.6406 20.5898 10.7637C20.1504 11.3555 19.3184 11.3438 18.9668 10.7344C18.8203 10.4824 18.8203 10.0312 18.9609 9.78516C19.1953 9.38672 19.7402 9.2168 20.1797 9.39844ZM16.0957 10.3711C18.2637 10.8867 19.7461 12.7734 19.7461 15C19.7461 17.6602 17.6602 19.7461 15 19.7461C12.3457 19.7461 10.2539 17.6543 10.2539 15C10.2539 12.7852 11.7246 10.9043 13.875 10.3711C14.502 10.2188 15.4629 10.2188 16.0957 10.3711Z" fill="#0D6986"/>
<path d="M14.0625 12.0879C13.0488 12.4336 12.3457 13.166 12.0469 14.1738C11.9941 14.3613 11.9531 14.707 11.9531 15C11.9531 15.8555 12.2578 16.5938 12.8379 17.168C13.4297 17.7539 14.1504 18.0469 15 18.0469C15.8555 18.0469 16.5938 17.7422 17.168 17.1621C17.7539 16.5703 18.0469 15.8496 18.0469 15C18.0469 13.5996 17.1738 12.4453 15.8262 12.0469C15.3457 11.9062 14.5371 11.9238 14.0625 12.0879Z" fill="#0D6986"/>
</svg>
