<svg width="46" height="43" viewBox="0 0 46 43" fill="none" xmlns="http://www.w3.org/2000/svg">
<path d="M1.20315 0.335756C1.04495 0.450056 0.825246 0.652156 0.728546 0.784056L0.543945 1.03016V18.5907V36.1513L0.798845 36.4765C1.27345 37.1093 -0.589754 37.0565 23 37.0565C46.5898 37.0565 44.7266 37.1093 45.2012 36.4765L45.4561 36.1513V20.6562V5.16096L45.2715 4.92366C44.8848 4.39636 44.3223 4.15906 43.751 4.28206C43.3291 4.36996 43.0215 4.62486 42.8018 5.06436L42.5996 5.45106V17.3427V29.2343H23H3.40045V16.0946V2.95496H23.958H44.5068L44.7969 2.75276C45.2979 2.41876 45.4561 2.12876 45.4561 1.54866C45.4561 0.968556 45.2979 0.678556 44.7969 0.335756L44.5068 0.142456H23H1.49325L1.20315 0.335756ZM42.5996 33.1015V34.1562H23H3.40045V33.1015V32.0468H23H42.5996V33.1015Z" fill="black"/>
<path d="M21.9013 4.50195C20.6533 4.64255 18.9131 5.12595 17.9902 5.59175C14.6855 7.25285 12.4092 10.1444 11.6181 13.6776C11.539 14.0468 11.4512 14.9258 11.4248 15.6641C11.3721 17.2637 11.5215 18.3623 11.9697 19.7246C13.9121 25.5342 19.9502 28.8476 25.8564 27.3446C30.3213 26.2108 33.7578 22.4491 34.4785 17.8964C34.6543 16.789 34.6103 14.6796 34.3818 13.6776C33.5908 10.1444 31.3144 7.25285 28.0097 5.59175C27.4033 5.28415 25.9971 4.82705 25.1797 4.66885C24.4414 4.52825 22.5517 4.43155 21.9013 4.50195ZM24.5205 7.48135C27.2363 7.95605 29.583 9.72265 30.8222 12.2274C31.3408 13.2733 31.5869 14.1435 31.6924 15.2685C31.9385 17.8788 31.0508 20.3661 29.2051 22.2294C26.6035 24.8573 22.6308 25.5693 19.3262 24.0049C15.916 22.3877 13.956 18.9774 14.3076 15.2685C14.4131 14.1435 14.6592 13.2733 15.1777 12.2274C16.9004 8.73825 20.6885 6.81345 24.5205 7.48135Z" fill="black"/>
<path d="M22.7364 7.94732C22.1739 8.20222 21.8575 8.71192 21.8575 9.38872C21.8575 9.87212 21.8487 9.89852 21.6202 9.94242C20.1963 10.25 19.0977 10.8389 18.5176 11.6035C18.0342 12.2451 17.876 12.711 17.8672 13.5459C17.8672 14.126 17.9024 14.3369 18.0869 14.7325C18.7198 16.0948 19.9502 16.7979 22.7364 17.4043C24.7754 17.8438 25.6543 18.1602 25.7686 18.5118C25.8477 18.7491 25.7774 18.8369 25.2764 19.083C24.0811 19.6895 21.7784 19.5225 20.6094 18.7491C20.4336 18.626 20.2315 18.3623 20.0821 18.0635C19.8184 17.501 19.5284 17.2373 19.0362 17.1055C18.0957 16.8506 17.1817 17.7032 17.3135 18.7051C17.3399 18.8985 17.4805 19.3116 17.6299 19.6104C18.1748 20.7178 19.5108 21.6494 21.1192 22.0537L21.8575 22.2295V22.7744C21.8575 23.3985 22.0508 23.7764 22.5518 24.1104C23.1407 24.5059 24.0811 24.2862 24.459 23.6709C24.5557 23.5039 24.6436 23.1524 24.67 22.8272L24.7139 22.2559L25.3731 22.0977C26.2784 21.878 26.9991 21.5176 27.5616 21.0166C28.1504 20.4717 28.4141 20.0586 28.5899 19.3643C28.9942 17.8086 28.1944 16.3321 26.4893 15.5059C25.7334 15.1368 25.3203 15.0137 23.4834 14.6094C22.0157 14.293 21.7871 14.2227 21.1807 13.9239C20.6797 13.6778 20.6358 13.5108 20.9873 13.2207C21.3741 12.8955 22.0069 12.7549 23.0879 12.7549C23.9756 12.7549 24.0459 12.7725 24.626 13.0625C25.1885 13.3438 25.2676 13.4141 25.5489 13.9326C26.0411 14.8291 26.7442 15.1104 27.5352 14.7237C29.3194 13.8623 27.8428 11.0323 25.1534 10.1534L24.7139 10.0127L24.67 9.36232C24.6084 8.60652 24.4151 8.24612 23.9317 8.01762C23.6328 7.87702 22.9825 7.84182 22.7364 7.94732Z" fill="black"/>
<path d="M22.4287 37.8828C22.1123 38.0234 21.6992 38.4805 21.6377 38.7529C21.6113 38.8584 21.585 39.1836 21.5762 39.4736L21.5498 40.001L17.5771 40.0449C13.7451 40.0889 13.6045 40.0977 13.3672 40.2734C12.9014 40.6162 12.7607 40.8975 12.7607 41.4512C12.7607 42.0312 12.9189 42.3213 13.4199 42.6553L13.71 42.8574H23H32.29L32.5801 42.6553C33.0811 42.3213 33.2393 42.0312 33.2393 41.4512C33.2393 40.8975 33.0986 40.6162 32.6328 40.2734C32.3955 40.0977 32.2549 40.0889 28.4229 40.0449L24.4502 40.001L24.4062 39.3242C24.3623 38.6123 24.2305 38.3398 23.7734 37.9971C23.4834 37.7773 22.7803 37.7158 22.4287 37.8828Z" fill="black"/>
</svg>
