<svg width="46" height="39" viewBox="0 0 46 39" fill="none" xmlns="http://www.w3.org/2000/svg">
<path d="M1.2383 1.03419C1.0889 1.12209 0.8691 1.33299 0.7549 1.49999L0.5439 1.78999L0.517599 14.543L0.5 27.2871L0.702101 27.6738C0.842801 27.9375 1.0273 28.1221 1.291 28.2627L1.6689 28.4648H23H44.3311L44.709 28.2627C44.9727 28.1221 45.1572 27.9375 45.2979 27.6738L45.5 27.2959V16.7139C45.5 5.14749 45.5264 5.78909 44.9814 5.32319C44.2695 4.73439 43.2764 4.88379 42.8018 5.65719C42.6523 5.90329 42.6436 6.41309 42.5996 15.7207L42.5557 25.5205H23H3.4443L3.418 14.6484L3.4004 3.76759L23.9492 3.74999L44.498 3.72359L44.8232 3.50389C45.5176 3.03809 45.6934 2.08009 45.2012 1.43849C44.7266 0.814488 46.7305 0.867189 22.9824 0.867189C2.0557 0.867189 1.502 0.875989 1.2383 1.03419Z" fill="black"/>
<path d="M22.8505 5.18265C22.7011 5.22655 22.4374 5.42875 22.2617 5.62205C21.9716 5.97365 21.9277 6.10545 21.8398 6.93165C21.8134 7.12505 21.7519 7.16015 21.2421 7.24805C19.3789 7.56445 17.7705 8.55765 17.1816 9.76175C16.4609 11.2382 16.7861 12.8642 18.0341 14.0332C18.9746 14.9121 20.3984 15.4922 22.8681 15.9844C25.1621 16.4327 26.164 16.7842 26.6914 17.3116C27.3505 17.9795 26.6914 18.7442 25.1357 19.1221C24.3447 19.3067 22.666 19.3067 21.7255 19.1045C20.372 18.8233 19.247 18.1465 19.0449 17.4961C18.7812 16.67 18.2714 16.2481 17.5244 16.2481C17.0673 16.2481 16.6455 16.4941 16.3378 16.9511C16.1533 17.2148 16.1357 17.3379 16.1708 17.8301C16.3027 19.7374 18.4296 21.4688 21.2861 21.9961L21.8134 22.0928L21.8749 22.6376C21.9804 23.6132 22.3935 24.0704 23.2285 24.1407C24.0986 24.211 24.6787 23.6661 24.8017 22.6465C24.8632 22.1456 24.872 22.1368 25.1884 22.084C27.3417 21.7149 28.9326 20.7217 29.583 19.3331C29.7851 18.8936 29.8115 18.7354 29.8115 17.8741C29.8115 16.9688 29.7939 16.8721 29.5302 16.3096C28.7832 14.7364 27.1396 13.8399 23.7558 13.1719C20.9697 12.6182 19.748 12.0645 19.748 11.3702C19.748 10.1573 23.5009 9.53325 25.2939 10.4473C25.8388 10.7286 26.3486 11.2382 26.5683 11.7216C26.8759 12.4248 27.3066 12.7324 27.9658 12.7324C28.4667 12.7324 28.8095 12.5655 29.1259 12.1436C29.9521 11.0713 28.6425 8.85645 26.5947 7.86325C26.1376 7.64355 25.5664 7.41505 25.3203 7.36235L24.8632 7.25685L24.8105 6.65915C24.7314 5.92965 24.5117 5.55175 23.9667 5.27925C23.5537 5.07715 23.3076 5.05075 22.8505 5.18265Z" fill="black"/>
<path d="M9.14841 10.8868C8.61231 10.9659 7.84771 11.2998 7.38181 11.6514C6.87211 12.0381 6.31841 12.8555 6.11621 13.5411C5.48341 15.6065 6.69631 17.7598 8.80571 18.3223C9.86911 18.6123 10.6426 18.375 11.0293 17.6543C11.1963 17.3379 11.2227 17.1797 11.1875 16.8633C11.0908 16.125 10.6338 15.7032 9.79881 15.545C9.00781 15.3955 8.66501 14.8418 8.98151 14.2266C9.14841 13.9014 9.35941 13.7871 9.77251 13.7871C10.2295 13.7871 10.5635 14.1387 10.6426 14.71C10.7305 15.2901 10.9854 15.6856 11.4072 15.8965C12.0928 16.2481 12.9014 16.0547 13.3145 15.4307C13.5166 15.1319 13.5518 14.9912 13.5342 14.5166C13.4727 12.2578 11.3984 10.544 9.14841 10.8868Z" fill="black"/>
<path d="M35.832 10.8517C34.6015 11.0539 33.6084 11.6955 33.0019 12.6886C31.6923 14.8332 32.8613 17.6984 35.3134 18.3224C36.3505 18.5861 37.0273 18.4103 37.4843 17.7424C37.7128 17.3996 37.748 16.7228 37.5459 16.3449C37.3613 15.9758 36.9306 15.6506 36.5527 15.589C35.6738 15.4396 35.3925 15.2023 35.3925 14.6222C35.3925 14.3849 35.4628 14.2355 35.6474 14.0422C36.1396 13.55 36.9658 13.7873 37.1064 14.464C37.2998 15.3869 37.5107 15.7472 37.9941 15.9494C38.6972 16.2394 39.4179 16.0197 39.8486 15.3781C40.455 14.4816 39.6904 12.3898 38.4423 11.5373C37.7128 11.0363 36.5703 10.7375 35.832 10.8517Z" fill="black"/>
<path d="M1.2471 30.6006C0.851601 30.8203 0.5 31.4092 0.5 31.8486C0.5088 32.2529 0.798801 32.8066 1.124 33.0439L1.4229 33.2549H23H44.5771L44.876 33.0439C45.2012 32.8066 45.4912 32.2529 45.5 31.8486C45.5 31.4092 45.1484 30.8203 44.7529 30.6006L44.4014 30.3984H23H1.5986L1.2471 30.6006Z" fill="black"/>
<path d="M1.42287 35.3555C0.543974 35.7422 0.236374 36.8233 0.807674 37.5615C1.27347 38.1856 -0.721624 38.1328 23 38.1328C46.7305 38.1328 44.7266 38.1856 45.2012 37.5615C45.6934 36.9199 45.5176 35.9619 44.8233 35.4961L44.4981 35.2764L23.0967 35.2588C5.47467 35.2412 1.64257 35.2588 1.42287 35.3555Z" fill="black"/>
</svg>
