<svg width="30" height="30" viewBox="0 0 30 30" fill="none" xmlns="http://www.w3.org/2000/svg">
<path d="M13.5997 0.0585728C8.51373 0.55076 3.96685 3.63279 1.66412 8.15623C0.849665 9.75584 0.369196 11.2969 0.105524 13.1543C-0.0116631 13.9746 0.00591507 16.1074 0.140681 17.0215C0.369196 18.6504 0.849665 20.1914 1.58795 21.6738C3.04693 24.6152 5.37896 26.9472 8.32623 28.4121C13.1016 30.791 18.7501 30.4629 23.2032 27.5508C24.9434 26.414 26.5958 24.7265 27.7208 22.9336C28.1544 22.2539 28.7989 20.9297 29.0919 20.1328C29.3907 19.3242 29.7364 17.9297 29.8594 17.0215C29.9942 16.1015 30.0118 13.9687 29.8946 13.1543C29.5489 10.7226 28.7754 8.64841 27.4922 6.71482C26.9532 5.89451 26.4083 5.22654 25.6465 4.45896C23.3087 2.09764 20.4024 0.632792 17.0801 0.140604C16.3653 0.0351353 14.3497 -0.0117397 13.5997 0.0585728ZM19.4825 5.77146L19.629 5.91209V7.22459V8.53709L19.4766 8.67771C19.3301 8.81248 19.2891 8.81834 18.2344 8.84763C17.2559 8.87693 17.1094 8.89451 16.8926 9.0117C16.3184 9.31052 16.2305 9.62693 16.2305 11.3496V12.6562H17.8126H19.3946L19.5821 12.8261L19.7754 12.9961L19.6348 14.25C19.4532 15.9082 19.4356 15.9961 19.2481 16.1543C19.0958 16.289 19.0665 16.289 17.6602 16.289H16.2305V20.2148C16.2305 24.0644 16.2305 24.1406 16.1133 24.2578C16.002 24.3691 15.92 24.375 14.502 24.375C13.084 24.375 13.002 24.3691 12.8907 24.2578C12.7735 24.1406 12.7735 24.0644 12.7735 20.2148V16.289H11.6836H10.5938L10.4239 16.1191L10.254 15.9492V14.4551V12.9609L10.4356 12.8086C10.6114 12.6562 10.6172 12.6562 11.6954 12.6562H12.7735V11.2617C12.7735 9.26951 12.8672 8.6367 13.3126 7.73435C13.7462 6.84373 14.6309 6.11131 15.6153 5.83006C16.1778 5.66599 16.4708 5.64256 17.9473 5.63084L19.3419 5.62498L19.4825 5.77146Z" fill="#0D6986"/>
</svg>
